<svg width="8" height="10" viewBox="0 0 8 10" fill="none" xmlns="http://www.w3.org/2000/svg">
<path d="M3.54364 6.49298C2.72448 6.38193 1.97805 5.96394 1.45531 5.32355C0.932571 4.68316 0.672521 3.86816 0.727751 3.04335C0.782981 2.21854 1.14937 1.44548 1.75282 0.880504C2.35628 0.315526 3.15177 0.00078874 3.97842 -5.95181e-05C4.80609 -0.000857392 5.60309 0.313103 6.20784 0.878171C6.8126 1.44324 7.17985 2.21713 7.23515 3.04294C7.29045 3.86876 7.02965 4.6847 6.50563 5.32536C5.98161 5.96601 5.23359 6.38343 4.4132 6.49298V7.39124H6.58712V8.26081H4.4132V9.99994H3.54364V8.26081H1.36973V7.39124H3.54364V6.49298ZM3.97842 5.65211C4.61263 5.65211 5.22087 5.40017 5.66933 4.95172C6.11778 4.50326 6.36972 3.89502 6.36972 3.26081C6.36972 2.6266 6.11778 2.01836 5.66933 1.5699C5.22087 1.12145 4.61263 0.869506 3.97842 0.869506C3.34421 0.869506 2.73597 1.12145 2.28751 1.5699C1.83906 2.01836 1.58712 2.6266 1.58712 3.26081C1.58712 3.89502 1.83906 4.50326 2.28751 4.95172C2.73597 5.40017 3.34421 5.65211 3.97842 5.65211Z" fill="white"/>
</svg>
