<svg width="21" height="16" viewBox="0 0 21 16" fill="none" xmlns="http://www.w3.org/2000/svg">
<path d="M1.62695 13.6894V7.40102C1.62695 7.03294 1.78918 6.68357 2.07038 6.44606L6.50609 2.69959C6.97185 2.30619 7.65347 2.30619 8.11923 2.69959L12.5549 6.44606C12.8361 6.68357 12.9984 7.03294 12.9984 7.40102V13.6894C12.9984 14.3798 12.4387 14.9394 11.7484 14.9394H7.31266H2.87695C2.1866 14.9394 1.62695 14.3798 1.62695 13.6894Z" stroke="#4D5A66" stroke-width="1.5" stroke-linecap="round" stroke-linejoin="round"/>
<path d="M16.3772 15.0366V6.42816C16.3772 5.85512 16.1314 5.3096 15.7021 4.92998L11.5669 1.27295" stroke="#4D5A66" stroke-width="1.5" stroke-linecap="round" stroke-linejoin="round"/>
<path d="M19.377 15.0366V4.79832C19.377 4.21112 19.119 3.65359 18.6713 3.27359L16.1753 1.15479" stroke="#4D5A66" stroke-width="1.5" stroke-linecap="round" stroke-linejoin="round"/>
</svg>
